<?xml version="1.0" encoding="UTF-8" standalone="no"?>
<svg
   xmlns:dc="http://purl.org/dc/elements/1.1/"
   xmlns:cc="http://creativecommons.org/ns#"
   xmlns:rdf="http://www.w3.org/1999/02/22-rdf-syntax-ns#"
   xmlns:svg="http://www.w3.org/2000/svg"
   xmlns="http://www.w3.org/2000/svg"
   xmlns:sodipodi="http://sodipodi.sourceforge.net/DTD/sodipodi-0.dtd"
   xmlns:inkscape="http://www.inkscape.org/namespaces/inkscape"
   id="svg2"
   version="1.1"
   viewBox="0 0 24 24"
   inkscape:version="0.48.4 r9939"
   width="100%"
   height="100%"
   sodipodi:docname="search24.svg">
  <defs
     id="defs7" />
  <sodipodi:namedview
     pagecolor="#ffffff"
     bordercolor="#666666"
     borderopacity="1"
     objecttolerance="10"
     gridtolerance="10"
     guidetolerance="10"
     inkscape:pageopacity="0"
     inkscape:pageshadow="2"
     inkscape:window-width="873"
     inkscape:window-height="698"
     id="namedview5"
     showgrid="false"
     fit-margin-top="0"
     fit-margin-left="0"
     fit-margin-right="0"
     fit-margin-bottom="0"
     inkscape:zoom="0.11523438"
     inkscape:cx="-1424.2034"
     inkscape:cy="76"
     inkscape:window-x="504"
     inkscape:window-y="266"
     inkscape:window-maximized="0"
     inkscape:current-layer="svg2" />
  <metadata
     id="metadata10">
    <rdf:RDF>
      <cc:Work
         rdf:about="">
        <dc:format>image/svg+xml</dc:format>
        <dc:type
           rdf:resource="http://purl.org/dc/dcmitype/StillImage" />
        <dc:title />
      </cc:Work>
    </rdf:RDF>
  </metadata>
  <path
     id="path4"
     d="m 16.6154,10.1538 q 0,-2.6682 -1.8966,-4.5649 -1.8967,-1.8966 -4.565,-1.8966 -2.6682,0 -4.5649,1.8966 -1.8966,1.8967 -1.8966,4.5649 0,2.6683 1.8966,4.565 1.8967,1.8966 4.5649,1.8966 2.6683,0 4.565,-1.8966 1.8966,-1.8967 1.8966,-4.565 z m 7.3846,12 q 0,0.75 -0.5481,1.2981 Q 22.9038,24 22.1538,24 21.375,24 20.8558,23.4519 l -4.9471,-4.9327 q -2.5818,1.7885 -5.7549,1.7885 -2.0625,0 -3.9447,-0.8005 Q 4.3269,18.7067 2.9639,17.3438 1.601,15.9808 0.8005,14.0986 0,12.2163 0,10.1538 0,8.0913 0.8005,6.2091 1.601,4.3269 2.9639,2.9639 4.3269,1.601 6.2091,0.8005 8.0913,0 10.1538,0 q 2.0625,0 3.9448,0.8005 1.8822,0.8005 3.2452,2.1634 1.3629,1.363 2.1634,3.2452 0.8005,1.8822 0.8005,3.9447 0,3.1731 -1.7885,5.7549 l 4.9471,4.9471 Q 24,21.3894 24,22.1538 z"
     inkscape:connector-curvature="0" />
</svg>
