<?xml version="1.0" encoding="UTF-8" standalone="no"?>
<svg id="svg2" xmlns:rdf="http://www.w3.org/1999/02/22-rdf-syntax-ns#" xmlns="http://www.w3.org/2000/svg" version="1.1" xmlns:cc="http://creativecommons.org/ns#" xmlns:dc="http://purl.org/dc/elements/1.1/" viewBox="0 0 24 24">
 <metadata id="metadata10">
  <rdf:RDF>
   <cc:Work rdf:about="">
    <dc:format>image/svg+xml</dc:format>
    <dc:type rdf:resource="http://purl.org/dc/dcmitype/StillImage"/>
    <dc:title/>
   </cc:Work>
  </rdf:RDF>
 </metadata>
 <path id="path4" fill="#FFF" d="m16.615,10.154q0-2.6682-1.8966-4.5649-1.8967-1.8966-4.565-1.8966-2.6682,0-4.5649,1.8966-1.8966,1.8967-1.8966,4.5649,0,2.6683,1.8966,4.565,1.8967,1.8966,4.5649,1.8966,2.6683,0,4.565-1.8966,1.8966-1.8967,1.8966-4.565zm7.3846,12q0,0.75-0.5481,1.2981-0.548,0.548-1.298,0.548-0.779,0-1.298-0.548l-4.9471-4.9327q-2.5818,1.7885-5.7549,1.7885-2.0625,0-3.9447-0.8005-1.8824-0.801-3.2454-2.164-1.3629-1.363-2.1634-3.245-0.8005-1.883-0.8005-3.945,0-2.0627,0.8005-3.9449t2.1634-3.2452q1.363-1.3629,3.2452-2.1634t3.9449-0.8005q2.0625,0,3.9448,0.8005,1.8822,0.8005,3.2452,2.1634,1.3629,1.363,2.1634,3.2452t0.8005,3.9447q0,3.1731-1.7885,5.7549l4.9471,4.9471q0.533,0.533,0.533,1.298z"/>
</svg>
