<?xml version="1.0" encoding="UTF-8" standalone="no"?>
<svg id="svg2" xmlns:rdf="http://www.w3.org/1999/02/22-rdf-syntax-ns#" xmlns="http://www.w3.org/2000/svg" version="1.1" xmlns:cc="http://creativecommons.org/ns#" xmlns:dc="http://purl.org/dc/elements/1.1/" viewBox="0 0 24 24">
 <metadata id="metadata10">
  <rdf:RDF>
   <cc:Work rdf:about="">
    <dc:format>image/svg+xml</dc:format>
    <dc:type rdf:resource="http://purl.org/dc/dcmitype/StillImage"/>
    <dc:title/>
   </cc:Work>
  </rdf:RDF>
 </metadata>
 <path id="path4" fill="#FFF" d="m24,20.4v2.4q0,0.4875-0.2969,0.8438-0.297,0.356-0.703,0.356h-22q-0.4063,0-0.7031-0.356-0.2969-0.356-0.2969-0.844v-2.4q0-0.488,0.2969-0.844,0.2968-0.356,0.7031-0.356h22q0.4063,0,0.7031,0.3562,0.297,0.356,0.297,0.844zm0-9.6v2.4q0,0.4875-0.2969,0.8438-0.297,0.356-0.703,0.356h-22q-0.4063,0-0.7031-0.356-0.2969-0.356-0.2969-0.844v-2.4q0-0.488,0.2969-0.8438,0.2968-0.3562,0.7031-0.3562h22q0.4063,0,0.7031,0.3562,0.297,0.3558,0.297,0.8438zm0-9.6v2.4q0,0.4875-0.297,0.8437-0.297,0.3563-0.703,0.3563h-22q-0.4063,0-0.7031-0.3563-0.2969-0.3562-0.2969-0.8437v-2.4q0-0.4875,0.2969-0.8438,0.2968-0.3562,0.7031-0.3562h22q0.406,0,0.703,0.3562,0.297,0.3563,0.297,0.8438z"/>
</svg>
